<svg width="206" height="209" viewBox="0 0 206 209" fill="none" xmlns="http://www.w3.org/2000/svg">
<path d="M11.0085 206.455V61H45.7386V116.043H46.4489C47.8693 112.728 49.8816 109.532 52.4858 106.455C55.1373 103.377 58.4991 100.867 62.571 98.9262C66.6903 96.9375 71.6146 95.9432 77.3438 95.9432C84.9195 95.9432 91.9981 97.9319 98.5795 101.909C105.208 105.886 110.559 112.018 114.631 120.304C118.703 128.59 120.739 139.149 120.739 151.98C120.739 164.338 118.774 174.684 114.844 183.017C110.961 191.35 105.705 197.6 99.0767 201.767C92.4953 205.934 85.1799 208.017 77.1307 208.017C71.6383 208.017 66.8797 207.117 62.8551 205.318C58.8305 203.519 55.4451 201.152 52.6989 198.216C50 195.28 47.9167 192.132 46.4489 188.77H45.3835V206.455H11.0085ZM45.0284 151.909C45.0284 157.78 45.8097 162.894 47.3722 167.25C48.982 171.606 51.2784 174.992 54.2614 177.406C57.2917 179.774 60.9138 180.957 65.1278 180.957C69.3892 180.957 73.0114 179.774 75.9943 177.406C78.9773 174.992 81.2263 171.606 82.7415 167.25C84.304 162.894 85.0852 157.78 85.0852 151.909C85.0852 146.038 84.304 140.948 82.7415 136.639C81.2263 132.331 78.9773 128.992 75.9943 126.625C73.0587 124.258 69.4366 123.074 65.1278 123.074C60.8665 123.074 57.2443 124.234 54.2614 126.554C51.2784 128.874 48.982 132.188 47.3722 136.497C45.8097 140.806 45.0284 145.943 45.0284 151.909Z" fill="#081C15"/>
<path d="M180.991 145.455V4.00543e-05H146.261V55.0427H145.551C144.131 51.7283 142.118 48.5322 139.514 45.4546C136.863 42.3769 133.501 39.8675 129.429 37.9262C125.31 35.9375 120.385 34.9432 114.656 34.9432C107.08 34.9432 100.002 36.9319 93.4205 40.9091C86.7917 44.8864 81.4413 51.018 77.3693 59.304C73.2973 67.59 71.2614 78.1487 71.2614 90.9802C71.2614 103.338 73.2263 113.684 77.1562 122.017C81.0388 130.35 86.2945 136.6 92.9233 140.767C99.5047 144.934 106.82 147.017 114.869 147.017C120.362 147.017 125.12 146.117 129.145 144.318C133.17 142.519 136.555 140.152 139.301 137.216C142 134.28 144.083 131.132 145.551 127.77H146.616V145.455H180.991ZM146.972 90.9091C146.972 96.7803 146.19 101.894 144.628 106.25C143.018 110.606 140.722 113.992 137.739 116.406C134.708 118.774 131.086 119.957 126.872 119.957C122.611 119.957 118.989 118.774 116.006 116.406C113.023 113.992 110.774 110.606 109.259 106.25C107.696 101.894 106.915 96.7803 106.915 90.9091C106.915 85.0379 107.696 79.948 109.259 75.6392C110.774 71.3305 113.023 67.9925 116.006 65.625C118.941 63.2576 122.563 62.0739 126.872 62.0739C131.134 62.0739 134.756 63.2339 137.739 65.554C140.722 67.8741 143.018 71.1885 144.628 75.4972C146.19 79.8059 146.972 84.9432 146.972 90.9091Z" fill="#081C15"/>
<path d="M116.319 142.12C115.116 143.321 113.896 144.046 112.659 144.292C111.421 144.469 110.184 144.291 108.947 143.76C107.709 143.229 106.578 142.451 105.554 141.425C103.433 139.303 101.631 137.534 100.147 136.119C98.6272 134.669 97.3197 133.431 96.2241 132.405C95.1287 131.309 94.0861 130.301 93.0966 129.381C92.1071 128.461 91.0823 127.471 90.0221 126.41C88.75 125.136 87.7783 123.775 87.1073 122.325C86.4716 120.839 86.3132 119.337 86.6321 117.817C86.9157 116.261 87.7826 114.759 89.2329 113.31C90.6478 111.896 92.186 111.243 93.8477 111.35C95.474 111.421 97.2413 112.377 99.1496 114.216C99.8211 114.888 100.74 115.843 101.906 117.081C103.037 118.284 104.274 119.628 105.616 121.114C106.995 122.564 108.373 124.049 109.751 125.57C111.129 127.021 112.401 128.365 113.567 129.603C114.733 130.841 115.688 131.831 116.43 132.574C117.773 133.918 118.514 135.439 118.655 137.136C118.76 138.798 117.982 140.459 116.319 142.12ZM86.0523 110.445C84.0714 112.424 81.9849 113.519 79.7928 113.73C77.6007 113.87 75.7979 113.233 74.3843 111.818C72.7941 110.226 72.1232 108.494 72.3716 106.62C72.62 104.675 73.5931 102.855 75.291 101.159C76.5644 99.8866 77.9259 99.0918 79.3757 98.7743C80.8254 98.4568 82.1866 98.4751 83.4592 98.8293C84.7318 99.1834 85.7745 99.7673 86.5873 100.581C87.7181 101.713 88.3715 103.18 88.5474 104.984C88.7587 106.751 87.927 108.572 86.0523 110.445Z" fill="#D8F3DC"/>
<path d="M171.98 128.055L194.813 163.396H184.96L162.245 128.055H171.98ZM168.44 159.797C167.929 160.544 167.909 161.252 168.381 161.921C168.892 162.55 169.502 162.865 170.21 162.865C170.21 162.865 170.308 162.865 170.505 162.865C170.741 162.865 170.859 162.865 170.859 162.865V163.455H157.879V162.865H158.587C159.688 162.865 160.672 162.589 161.537 162.039C162.442 161.449 163.209 160.76 163.838 159.974L168.44 159.797ZM174.93 145.401L177.467 147.466L165.844 163.396L161.36 163.278L174.93 145.401ZM182.659 159.856L192.63 160.033C193.141 160.78 193.849 161.449 194.754 162.039C195.698 162.589 196.721 162.865 197.822 162.865H198.53V163.455H180.24V162.865C180.24 162.865 180.338 162.865 180.535 162.865C180.771 162.865 180.889 162.865 180.889 162.865C181.597 162.865 182.187 162.55 182.659 161.921C183.131 161.252 183.131 160.564 182.659 159.856ZM176.7 127.996V128.586C176.7 128.586 176.582 128.586 176.346 128.586C176.149 128.586 176.051 128.586 176.051 128.586C175.382 128.586 174.812 128.92 174.34 129.589C173.868 130.257 173.848 130.926 174.281 131.595L164.487 131.418C163.936 130.67 163.189 130.021 162.245 129.471C161.34 128.881 160.337 128.586 159.236 128.586H158.528V127.996H176.7ZM193.633 128.055L181.184 146.286L179.237 143.218L189.09 128.055H193.633ZM197.291 127.996V128.586H196.524C195.462 128.586 194.459 128.861 193.515 129.412C192.61 129.962 191.883 130.631 191.332 131.418L186.789 131.595C187.222 130.926 187.202 130.257 186.73 129.589C186.297 128.92 185.727 128.586 185.019 128.586C185.019 128.586 184.901 128.586 184.665 128.586C184.468 128.586 184.37 128.586 184.37 128.586V127.996H197.291Z" fill="white"/>
</svg>
